<svg xmlns="http://www.w3.org/2000/svg" class="main-svg" style="background: rgb(255, 255, 255);" width="649.92" height="487.44" xmlns:xlink="http://www.w3.org/1999/xlink"><defs id="defs-c37bc8"><g class="clips"><clipPath class="plotclip" id="clipc37bc8xyplot"><rect width="413" height="392" /></clipPath><clipPath class="axesclip" id="clipc37bc8x"><rect x="60" y="0" width="413" height="487.44" /></clipPath><clipPath class="axesclip" id="clipc37bc8y"><rect x="0" y="35" width="649.92" height="392" /></clipPath><clipPath class="axesclip" id="clipc37bc8xy"><rect x="60" y="35" width="413" height="392" /></clipPath></g><g class="gradients" /></defs><g class="bglayer"><rect class="bg" style="fill: rgb(255, 255, 255); fill-opacity: 1; stroke-width: 0;" x="50" y="25" width="433" height="412" /></g><g class="draglayer cursor-crosshair"><g class="xy"><rect class="nsewdrag drag cursor-pointer" style="fill: transparent; pointer-events: all; stroke-width: 0;" x="60" y="35" width="413" height="392" data-subplot="xy" /><rect class="nwdrag drag cursor-pointer" style="fill: transparent; pointer-events: none; stroke-width: 0;" x="40" y="15" width="20" height="20" data-subplot="xy" /><rect class="nedrag drag cursor-pointer" style="fill: transparent; pointer-events: none; stroke-width: 0;" x="473" y="15" width="20" height="20" data-subplot="xy" /><rect class="swdrag drag cursor-pointer" style="fill: transparent; pointer-events: none; stroke-width: 0;" x="40" y="427" width="20" height="20" data-subplot="xy" /><rect class="sedrag drag cursor-pointer" style="fill: transparent; pointer-events: none; stroke-width: 0;" x="473" y="427" width="20" height="20" data-subplot="xy" /><rect class="ewdrag drag cursor-pointer" style="fill: transparent; pointer-events: none; stroke-width: 0;" x="101.3" y="437.5" width="330.4" height="20" data-subplot="xy" /><rect class="wdrag drag cursor-pointer" style="fill: transparent; pointer-events: none; stroke-width: 0;" x="60" y="437.5" width="41.3" height="20" data-subplot="xy" /><rect class="edrag drag cursor-pointer" style="fill: transparent; pointer-events: none; stroke-width: 0;" x="431.7" y="437.5" width="41.3" height="20" data-subplot="xy" /><rect class="nsdrag drag cursor-pointer" style="fill: transparent; pointer-events: none; stroke-width: 0;" x="29.5" y="74.2" width="20" height="313.6" data-subplot="xy" /><rect class="sdrag drag cursor-pointer" style="fill: transparent; pointer-events: none; stroke-width: 0;" x="29.5" y="387.8" width="20" height="39.2" data-subplot="xy" /><rect class="ndrag drag cursor-pointer" style="fill: transparent; pointer-events: none; stroke-width: 0;" x="29.5" y="35" width="20" height="39.2" data-subplot="xy" /></g></g><g class="layer-below"><g class="imagelayer" /><g class="shapelayer" /></g><g class="cartesianlayer"><g class="subplot xy"><g class="layer-subplot"><g class="shapelayer" /><g class="imagelayer" /></g><g class="gridlayer"><g class="x" /><g class="y"><path class="ygrid crisp" style="stroke: rgb(215, 215, 215); stroke-opacity: 1; stroke-width: 1px;" transform="translate(0 326.92)" d="M 60 0 h 413" /><path class="ygrid crisp" style="stroke: rgb(215, 215, 215); stroke-opacity: 1; stroke-width: 1px;" transform="translate(0 250.18)" d="M 60 0 h 413" /><path class="ygrid crisp" style="stroke: rgb(215, 215, 215); stroke-opacity: 1; stroke-width: 1px;" transform="translate(0 173.45)" d="M 60 0 h 413" /><path class="ygrid crisp" style="stroke: rgb(215, 215, 215); stroke-opacity: 1; stroke-width: 1px;" transform="translate(0 96.72)" d="M 60 0 h 413" /></g></g><g class="zerolinelayer"><path class="xzl zl crisp" style="stroke: rgb(215, 215, 215); stroke-opacity: 1; stroke-width: 1px;" transform="translate(84.4)" d="M 0 35 v 392" /><path class="yzl zl crisp" style="stroke: rgb(215, 215, 215); stroke-opacity: 1; stroke-width: 1px;" transform="translate(0 403.65)" d="M 60 0 h 413" /></g><path class="xlines-below" /><path class="ylines-below" /><g class="overlines-below" /><g class="xaxislayer-below" /><g class="yaxislayer-below" /><g class="overaxes-below" /><g class="plot" clip-path="url(&quot;#clipc37bc8xyplot&quot;)" transform="translate(60 35)"><g class="scatterlayer mlayer"><g class="trace scatter trace07592d" style="opacity: 1; stroke-miterlimit: 2;"><path class="js-line" style="opacity: 1; fill: none; stroke: rgb(255, 165, 0); stroke-opacity: 1; stroke-width: 2px;" d="M 314.78 23.35 L 363.99 23.35" /><g class="points"><path class="point plotly-customdata" style="opacity: 1; fill: rgb(255, 165, 0); fill-opacity: 1; stroke-width: 0px;" transform="translate(314.78 23.35)" d="M 3 0 A 3 3 0 1 1 0 -3 A 3 3 0 0 1 3 0 Z" /><path class="point plotly-customdata" style="opacity: 1; fill: rgb(255, 165, 0); fill-opacity: 1; stroke-width: 0px;" transform="translate(363.99 23.35)" d="M 3 0 A 3 3 0 1 1 0 -3 A 3 3 0 0 1 3 0 Z" /></g></g><g class="trace scatter trace44945a" style="opacity: 1; stroke-miterlimit: 2;"><path class="js-line" style="opacity: 1; fill: none; stroke: rgb(23, 52, 123); stroke-opacity: 1; stroke-width: 2px;" d="M 24.4 368.65 L 388.6 368.65" /><g class="points"><path class="point plotly-customdata" style="opacity: 1; fill: rgb(23, 52, 123); fill-opacity: 1; stroke-width: 0px;" transform="translate(24.4 368.65)" d="M 3 0 A 3 3 0 1 1 0 -3 A 3 3 0 0 1 3 0 Z" /><path class="point plotly-customdata" style="opacity: 1; fill: rgb(23, 52, 123); fill-opacity: 1; stroke-width: 0px;" transform="translate(388.6 368.65)" d="M 3 0 A 3 3 0 1 1 0 -3 A 3 3 0 0 1 3 0 Z" /></g></g></g></g><g class="overplot" /><path class="xlines-above crisp" style="fill: none;" d="M 0 0" /><path class="ylines-above crisp" style="fill: none;" d="M 0 0" /><g class="overlines-above" /><g class="xaxislayer-above"><g class="xtick"><text style="font-family: Open Sans; font-size: 14px; white-space: pre; fill: rgb(85, 85, 85); fill-opacity: 1;" text-anchor="middle" transform="translate(84.4)" x="0" y="452" data-unformatted="0" data-math="N">0</text></g><g class="xtick"><text style="font-family: Open Sans; font-size: 14px; white-space: pre; fill: rgb(85, 85, 85); fill-opacity: 1;" text-anchor="middle" transform="translate(182.83)" x="0" y="452" data-unformatted="20" data-math="N">20</text></g><g class="xtick"><text style="font-family: Open Sans; font-size: 14px; white-space: pre; fill: rgb(85, 85, 85); fill-opacity: 1;" text-anchor="middle" transform="translate(281.26)" x="0" y="452" data-unformatted="40" data-math="N">40</text></g><g class="xtick"><text style="font-family: Open Sans; font-size: 14px; white-space: pre; fill: rgb(85, 85, 85); fill-opacity: 1;" text-anchor="middle" transform="translate(379.7)" x="0" y="452" data-unformatted="60" data-math="N">60</text></g></g><g class="yaxislayer-above"><g class="ytick"><text style="font-family: Open Sans; font-size: 14px; white-space: pre; fill: rgb(85, 85, 85); fill-opacity: 1;" text-anchor="end" transform="translate(0 403.65)" x="49" y="4.9" data-unformatted="0" data-math="N">0</text></g><g class="ytick"><text style="font-family: Open Sans; font-size: 14px; white-space: pre; fill: rgb(85, 85, 85); fill-opacity: 1;" text-anchor="end" transform="translate(0 326.92)" x="49" y="4.9" data-unformatted="200" data-math="N">200</text></g><g class="ytick"><text style="font-family: Open Sans; font-size: 14px; white-space: pre; fill: rgb(85, 85, 85); fill-opacity: 1;" text-anchor="end" transform="translate(0 250.18)" x="49" y="4.9" data-unformatted="400" data-math="N">400</text></g><g class="ytick"><text style="font-family: Open Sans; font-size: 14px; white-space: pre; fill: rgb(85, 85, 85); fill-opacity: 1;" text-anchor="end" transform="translate(0 173.45)" x="49" y="4.9" data-unformatted="600" data-math="N">600</text></g><g class="ytick"><text style="font-family: Open Sans; font-size: 14px; white-space: pre; fill: rgb(85, 85, 85); fill-opacity: 1;" text-anchor="end" transform="translate(0 96.72)" x="49" y="4.9" data-unformatted="800" data-math="N">800</text></g></g><g class="overaxes-above" /></g></g><g class="polarlayer" /><g class="ternarylayer" /><g class="geolayer" /><g class="pielayer" /><g class="glimages" /></svg>