<svg xmlns="http://www.w3.org/2000/svg" class="main-svg" style="background: rgb(255, 255, 255);" width="649.92" height="487.44" xmlns:xlink="http://www.w3.org/1999/xlink"><defs id="defs-835571"><g class="clips"><clipPath class="plotclip" id="clip835571xyplot"><rect width="401" height="392" /></clipPath><clipPath class="axesclip" id="clip835571x"><rect x="60" y="0" width="401" height="487.44" /></clipPath><clipPath class="axesclip" id="clip835571y"><rect x="0" y="35" width="649.92" height="392" /></clipPath><clipPath class="axesclip" id="clip835571xy"><rect x="60" y="35" width="401" height="392" /></clipPath></g><g class="gradients" /></defs><g class="bglayer"><rect class="bg" style="fill: rgb(255, 255, 255); fill-opacity: 1; stroke-width: 0;" x="50" y="25" width="421" height="412" /></g><g class="draglayer cursor-crosshair"><g class="xy"><rect class="nsewdrag drag cursor-pointer" style="fill: transparent; pointer-events: all; stroke-width: 0;" x="60" y="35" width="401" height="392" data-subplot="xy" /><rect class="nwdrag drag cursor-pointer" style="fill: transparent; pointer-events: none; stroke-width: 0;" x="40" y="15" width="20" height="20" data-subplot="xy" /><rect class="nedrag drag cursor-pointer" style="fill: transparent; pointer-events: none; stroke-width: 0;" x="461" y="15" width="20" height="20" data-subplot="xy" /><rect class="swdrag drag cursor-pointer" style="fill: transparent; pointer-events: none; stroke-width: 0;" x="40" y="427" width="20" height="20" data-subplot="xy" /><rect class="sedrag drag cursor-pointer" style="fill: transparent; pointer-events: none; stroke-width: 0;" x="461" y="427" width="20" height="20" data-subplot="xy" /><rect class="ewdrag drag cursor-pointer" style="fill: transparent; pointer-events: none; stroke-width: 0;" x="100.1" y="437.5" width="320.8" height="20" data-subplot="xy" /><rect class="wdrag drag cursor-pointer" style="fill: transparent; pointer-events: none; stroke-width: 0;" x="60" y="437.5" width="40.1" height="20" data-subplot="xy" /><rect class="edrag drag cursor-pointer" style="fill: transparent; pointer-events: none; stroke-width: 0;" x="420.9" y="437.5" width="40.1" height="20" data-subplot="xy" /><rect class="nsdrag drag cursor-pointer" style="fill: transparent; pointer-events: none; stroke-width: 0;" x="29.5" y="74.2" width="20" height="313.6" data-subplot="xy" /><rect class="sdrag drag cursor-pointer" style="fill: transparent; pointer-events: none; stroke-width: 0;" x="29.5" y="387.8" width="20" height="39.2" data-subplot="xy" /><rect class="ndrag drag cursor-pointer" style="fill: transparent; pointer-events: none; stroke-width: 0;" x="29.5" y="35" width="20" height="39.2" data-subplot="xy" /></g></g><g class="layer-below"><g class="imagelayer" /><g class="shapelayer" /></g><g class="cartesianlayer"><g class="subplot xy"><g class="layer-subplot"><g class="shapelayer" /><g class="imagelayer" /></g><g class="gridlayer"><g class="x" /><g class="y"><path class="ygrid crisp" style="stroke: rgb(215, 215, 215); stroke-opacity: 1; stroke-width: 1px;" transform="translate(0 403.65)" d="M 60 0 h 401" /><path class="ygrid crisp" style="stroke: rgb(215, 215, 215); stroke-opacity: 1; stroke-width: 1px;" transform="translate(0 317.32)" d="M 60 0 h 401" /><path class="ygrid crisp" style="stroke: rgb(215, 215, 215); stroke-opacity: 1; stroke-width: 1px;" transform="translate(0 231)" d="M 60 0 h 401" /><path class="ygrid crisp" style="stroke: rgb(215, 215, 215); stroke-opacity: 1; stroke-width: 1px;" transform="translate(0 144.67)" d="M 60 0 h 401" /><path class="ygrid crisp" style="stroke: rgb(215, 215, 215); stroke-opacity: 1; stroke-width: 1px;" transform="translate(0 58.35)" d="M 60 0 h 401" /></g></g><g class="zerolinelayer"><path class="xzl zl crisp" style="stroke: rgb(215, 215, 215); stroke-opacity: 1; stroke-width: 1px;" transform="translate(83.8)" d="M 0 35 v 392" /></g><path class="xlines-below" /><path class="ylines-below" /><g class="overlines-below" /><g class="xaxislayer-below" /><g class="yaxislayer-below" /><g class="overaxes-below" /><g class="plot" clip-path="url(&quot;#clip835571xyplot&quot;)" transform="translate(60 35)"><g class="scatterlayer mlayer"><g class="trace scatter trace6d20a6" style="opacity: 1; stroke-miterlimit: 2;"><path class="js-line" style="opacity: 1; fill: none; stroke: rgb(0, 0, 255); stroke-opacity: 1; stroke-width: 2px;" d="M 23.8 23.35 L 377.2 23.35" /><g class="points"><path class="point plotly-customdata" style="opacity: 1; fill: rgb(0, 0, 255); fill-opacity: 1; stroke-width: 0px;" transform="translate(23.8 23.35)" d="M 3 0 A 3 3 0 1 1 0 -3 A 3 3 0 0 1 3 0 Z" /><path class="point plotly-customdata" style="opacity: 1; fill: rgb(0, 0, 255); fill-opacity: 1; stroke-width: 0px;" transform="translate(377.2 23.35)" d="M 3 0 A 3 3 0 1 1 0 -3 A 3 3 0 0 1 3 0 Z" /></g></g><g class="trace scatter trace72f073" style="opacity: 1; stroke-miterlimit: 2;"><path class="js-line" style="opacity: 1; fill: none; stroke: rgb(23, 52, 123); stroke-opacity: 1; stroke-width: 2px;" d="M 305.56 368.65 L 353.32 368.65" /><g class="points"><path class="point plotly-customdata" style="opacity: 1; fill: rgb(23, 52, 123); fill-opacity: 1; stroke-width: 0px;" transform="translate(305.56 368.65)" d="M 3 0 A 3 3 0 1 1 0 -3 A 3 3 0 0 1 3 0 Z" /><path class="point plotly-customdata" style="opacity: 1; fill: rgb(23, 52, 123); fill-opacity: 1; stroke-width: 0px;" transform="translate(353.32 368.65)" d="M 3 0 A 3 3 0 1 1 0 -3 A 3 3 0 0 1 3 0 Z" /></g></g></g></g><g class="overplot" /><path class="xlines-above crisp" style="fill: none;" d="M 0 0" /><path class="ylines-above crisp" style="fill: none;" d="M 0 0" /><g class="overlines-above" /><g class="xaxislayer-above"><g class="xtick"><text style="font-family: Open Sans; font-size: 14px; white-space: pre; fill: rgb(85, 85, 85); fill-opacity: 1;" text-anchor="middle" transform="translate(83.8)" x="0" y="452" data-unformatted="0" data-math="N">0</text></g><g class="xtick"><text style="font-family: Open Sans; font-size: 14px; white-space: pre; fill: rgb(85, 85, 85); fill-opacity: 1;" text-anchor="middle" transform="translate(179.31)" x="0" y="452" data-unformatted="20" data-math="N">20</text></g><g class="xtick"><text style="font-family: Open Sans; font-size: 14px; white-space: pre; fill: rgb(85, 85, 85); fill-opacity: 1;" text-anchor="middle" transform="translate(274.83)" x="0" y="452" data-unformatted="40" data-math="N">40</text></g><g class="xtick"><text style="font-family: Open Sans; font-size: 14px; white-space: pre; fill: rgb(85, 85, 85); fill-opacity: 1;" text-anchor="middle" transform="translate(370.34)" x="0" y="452" data-unformatted="60" data-math="N">60</text></g></g><g class="yaxislayer-above"><g class="ytick"><text style="font-family: Open Sans; font-size: 14px; white-space: pre; fill: rgb(85, 85, 85); fill-opacity: 1;" text-anchor="end" transform="translate(0 403.65)" x="49" y="4.9" data-unformatted="3000" data-math="N">3000</text></g><g class="ytick"><text style="font-family: Open Sans; font-size: 14px; white-space: pre; fill: rgb(85, 85, 85); fill-opacity: 1;" text-anchor="end" transform="translate(0 317.32)" x="49" y="4.9" data-unformatted="3500" data-math="N">3500</text></g><g class="ytick"><text style="font-family: Open Sans; font-size: 14px; white-space: pre; fill: rgb(85, 85, 85); fill-opacity: 1;" text-anchor="end" transform="translate(0 231)" x="49" y="4.9" data-unformatted="4000" data-math="N">4000</text></g><g class="ytick"><text style="font-family: Open Sans; font-size: 14px; white-space: pre; fill: rgb(85, 85, 85); fill-opacity: 1;" text-anchor="end" transform="translate(0 144.67)" x="49" y="4.9" data-unformatted="4500" data-math="N">4500</text></g><g class="ytick"><text style="font-family: Open Sans; font-size: 14px; white-space: pre; fill: rgb(85, 85, 85); fill-opacity: 1;" text-anchor="end" transform="translate(0 58.35)" x="49" y="4.9" data-unformatted="5000" data-math="N">5000</text></g></g><g class="overaxes-above" /></g></g><g class="polarlayer" /><g class="ternarylayer" /><g class="geolayer" /><g class="pielayer" /><g class="glimages" /></svg>